<svg width="26" height="27" viewBox="0 0 26 27" fill="none" xmlns="http://www.w3.org/2000/svg">
<path fill-rule="evenodd" clip-rule="evenodd" d="M4.6573 24.7179C4.53088 25.4386 5.24192 26.0026 5.86989 25.6799L13.0024 22.014L20.1349 25.6799C20.7628 26.0026 21.4739 25.4386 21.3475 24.7179L19.9992 17.0325L25.7229 11.578C26.2579 11.0682 25.981 10.1362 25.2644 10.0344L17.3043 8.90358L13.7551 1.87294C13.4354 1.23962 12.5693 1.23962 12.2496 1.87294L8.70043 8.90358L0.74041 10.0344C0.0238023 10.1362 -0.253098 11.0682 0.281821 11.578L6.00561 17.0325L4.6573 24.7179ZM12.6273 20.2197L6.63794 23.2981L7.7661 16.8675C7.81928 16.5643 7.71929 16.2539 7.50164 16.0465L2.77802 11.5451L9.36302 10.6096C9.63524 10.571 9.87292 10.3971 10.0013 10.1427L13.0024 4.19795L16.0034 10.1427C16.1318 10.3971 16.3695 10.571 16.6417 10.6096L23.2267 11.5451L18.5031 16.0465C18.2855 16.2539 18.1855 16.5643 18.2387 16.8675L19.3668 23.2981L13.3775 20.2197C13.1409 20.0981 12.8639 20.0981 12.6273 20.2197Z" fill="#9D875C"/>
</svg>
